<svg xmlns="http://www.w3.org/2000/svg" viewBox="0 0 64 64">
  <defs>
    <linearGradient id="fig" x1="0%" y1="0%" x2="100%" y2="100%">
      <stop offset="0%" style="stop-color:#7A1C2E"/>
      <stop offset="100%" style="stop-color:#1E0A12"/>
    </linearGradient>
  </defs>
  <path d="M32 4C28 4 24 8 22 14C18 6 14 4 12 6C8 10 14 22 20 28C16 36 14 46 18 54C22 60 28 62 32 60C36 62 42 60 46 54C50 46 48 36 44 28C50 22 56 10 52 6C50 4 46 6 42 14C40 8 36 4 32 4Z" fill="url(#fig)"/>
  <ellipse cx="32" cy="18" rx="4" ry="3" fill="#F0E0CC" opacity="0.3"/>
</svg>
